<svg width="19" height="19" viewBox="0 0 19 19" fill="none" xmlns="http://www.w3.org/2000/svg">
<path d="M3.16675 14.25V4.75" stroke="#1C274C" stroke-width="1.1875" stroke-linecap="round"/>
<path d="M15.8333 9.5V14.25" stroke="#1C274C" stroke-width="1.1875" stroke-linecap="round"/>
<path d="M9.50008 7.91667C12.9979 7.91667 15.8334 6.4989 15.8334 4.75C15.8334 3.0011 12.9979 1.58334 9.50008 1.58334C6.00228 1.58334 3.16675 3.0011 3.16675 4.75C3.16675 6.4989 6.00228 7.91667 9.50008 7.91667Z" stroke="#1C274C" stroke-width="1.1875"/>
<path d="M15.8334 9.5C15.8334 11.2489 12.9979 12.6667 9.50008 12.6667C6.00228 12.6667 3.16675 11.2489 3.16675 9.5" stroke="#1C274C" stroke-width="1.1875" stroke-linecap="round"/>
<path d="M15.8334 14.25C15.8334 15.9989 12.9979 17.4167 9.50008 17.4167C6.00228 17.4167 3.16675 15.9989 3.16675 14.25" stroke="#1C274C" stroke-width="1.1875"/>
</svg>
