<svg width="13" height="17" viewBox="0 0 13 17" fill="none" xmlns="http://www.w3.org/2000/svg">
<path d="M11.0033 7.2296V4.53742C11.0105 3.31927 10.524 2.14798 9.65545 1.29383C8.81572 0.457706 7.7165 0 6.55242 0C6.5344 0 6.51277 0 6.49475 0C4.01161 0.00360399 1.99338 2.03625 1.99338 4.53742V7.2296C1.05634 7.34132 0.371582 8.12699 0.371582 9.07844V15.1259C0.371582 16.1531 1.19329 17 2.22043 17H10.7799C11.807 17 12.6287 16.1531 12.6287 15.1259V9.07844C12.6251 8.13059 11.9404 7.34132 11.0033 7.2296ZM2.71057 4.53742H2.71417C2.71417 2.43269 4.41165 0.709985 6.49836 0.709985H6.50196C7.49306 0.706381 8.44451 1.09922 9.14729 1.79839C9.8789 2.52279 10.2861 3.51028 10.2789 4.53742V7.2332H9.48606V4.53742C9.49327 3.71931 9.16891 2.93364 8.58867 2.35701C8.04086 1.8092 7.29844 1.49926 6.52359 1.49926H6.50196C4.84413 1.49926 3.50345 2.86156 3.50345 4.53381V7.2332H2.71057V4.53742ZM8.76887 4.53742V7.2332H4.22785V4.53742C4.22785 3.26161 5.24417 2.22366 6.50557 2.22366H6.52719C7.11104 2.22366 7.67326 2.45792 8.08771 2.87238C8.5274 3.31206 8.77608 3.91393 8.76887 4.53742ZM11.9404 15.1367C11.9404 15.7674 11.4286 16.2792 10.7979 16.2792H2.23484C1.60414 16.2792 1.09238 15.7674 1.09238 15.1367V9.09646C1.09238 8.46576 1.60414 7.954 2.23484 7.954H10.7979C11.4286 7.954 11.9404 8.46576 11.9404 9.09646V15.1367Z" fill="#000842"/>
</svg>
